<svg width="40" height="59" viewBox="0 0 40 59" fill="none" xmlns="http://www.w3.org/2000/svg">
<path d="M23.283 24.436C23.283 26.022 22.919 27.478 22.191 28.804C21.463 30.104 20.345 31.157 18.837 31.963C17.329 32.769 15.457 33.172 13.221 33.172H9.087V43H2.418V15.622H13.221C15.405 15.622 17.251 15.999 18.759 16.753C20.267 17.507 21.398 18.547 22.152 19.873C22.906 21.199 23.283 22.72 23.283 24.436ZM12.714 27.868C13.988 27.868 14.937 27.569 15.561 26.971C16.185 26.373 16.497 25.528 16.497 24.436C16.497 23.344 16.185 22.499 15.561 21.901C14.937 21.303 13.988 21.004 12.714 21.004H9.087V27.868H12.714Z" fill="#3BE1AC"/>
<path d="M33.7 24.688C32.7373 24.688 31.9267 24.3587 31.268 23.7C30.6093 23.0413 30.28 22.2433 30.28 21.306C30.28 20.3687 30.6093 19.558 31.268 18.874C31.9267 18.19 32.7373 17.848 33.7 17.848C34.6627 17.848 35.4733 18.19 36.132 18.874C36.7907 19.558 37.12 20.3687 37.12 21.306C37.12 22.2433 36.7907 23.0413 36.132 23.7C35.4733 24.3587 34.6627 24.688 33.7 24.688ZM37.044 34.872C37.044 36.5947 36.6387 38.1273 35.828 39.47C35.0427 40.8127 34.042 41.9147 32.826 42.776C31.6353 43.6627 30.432 44.296 29.216 44.676L28.684 43.08C29.9507 42.4213 30.9893 41.6487 31.8 40.762C32.636 39.8753 33.282 38.9253 33.738 37.912L32.408 37.228C31.6227 36.7973 31.0653 36.3033 30.736 35.746C30.432 35.1633 30.28 34.5933 30.28 34.036C30.28 33.0987 30.5967 32.3133 31.23 31.68C31.8633 31.0467 32.6613 30.73 33.624 30.73C34.156 30.73 34.65 30.806 35.106 30.958C35.562 31.11 36.018 31.3887 36.474 31.794C36.702 32.3767 36.854 32.896 36.93 33.352C37.006 33.7827 37.044 34.2893 37.044 34.872Z" fill="#3BE1AC"/>
</svg>
